<svg width="21" height="21"  fill="none" xmlns="http://www.w3.org/2000/svg">
<g id="chevron-down">
<path id="Vector" fill-rule="evenodd" clip-rule="evenodd" d="M5.7362 7.7093C5.91875 7.5268 6.16632 7.42428 6.42445 7.42428C6.68258 7.42428 6.93015 7.5268 7.1127 7.7093L10.3184 10.915L13.5241 7.7093C13.6139 7.61633 13.7213 7.54216 13.8401 7.49114C13.9588 7.44012 14.0866 7.41327 14.2158 7.41215C14.3451 7.41102 14.4733 7.43565 14.5929 7.4846C14.7126 7.53355 14.8212 7.60583 14.9127 7.69724C15.0041 7.78864 15.0763 7.89733 15.1253 8.01697C15.1742 8.13661 15.1989 8.2648 15.1977 8.39405C15.1966 8.52331 15.1698 8.65105 15.1187 8.76982C15.0677 8.88859 14.9936 8.99601 14.9006 9.08581L11.0066 12.9798C10.8241 13.1623 10.5765 13.2648 10.3184 13.2648C10.0603 13.2648 9.81269 13.1623 9.63014 12.9798L5.7362 9.08581C5.5537 8.90326 5.45117 8.65569 5.45117 8.39756C5.45117 8.13942 5.5537 7.89186 5.7362 7.7093Z" fill="white"/>
</g>
</svg>
 